# xmcd CD database file
# Generated: Wed May 25 10:14:24 2005 by KSCD
# 
# Track frame offsets:
#       182
#       22772
#       37945
#       56255
#       82487
#       99947
#       118687
#       137352
#
# Disc length: 2081 seconds
#
# Revision: 1
# Processed by: cddbd v1.5.1PL0 Copyright (c) Steve Scherf et al.
# Submitted via: Kscd 1.3.3
#
DISCID=57081f08
DTITLE=Laura Stoica - Focul
DYEAR=1900
DGENRE=
TTITLE0=Focul
TTITLE1=Cand esti singur
TTITLE2=Ea nu stie ce vrea
TTITLE3=Cui ii pasa
TTITLE4=Doar tu
TTITLE5=Un actor grabit
TTITLE6=Am nevoie de iubire
TTITLE7=Va fi o zi
EXTD=
EXTT0=
EXTT1=
EXTT2=
EXTT3=
EXTT4=
EXTT5=
EXTT6=
EXTT7=
PLAYORDER=
